<?xml version="1.0" encoding="iso-8859-1"?>
<!-- Generator: Adobe Illustrator 19.0.0, SVG Export Plug-In . SVG Version: 6.00 Build 0)  -->
<svg version="1.1" id="Layer_1" xmlns="http://www.w3.org/2000/svg" xmlns:xlink="http://www.w3.org/1999/xlink" x="0px" y="0px"
	 viewBox="0 0 512 512" style="enable-background:new 0 0 512 512; fill:white; stroke:white" xml:space="preserve">
<g>
	<g>
		<path d="M511.556,351.417L485.46,138.214c-3.914-32.006-31.182-56.142-63.429-56.142c-5.413,0-10.69,0.675-15.749,1.944
			c-10.482-21.779-32.812-36.24-57.595-36.24c-14.861,0-29.196,5.277-40.497,14.529c-11.806-16.628-31.276-27.085-52.189-27.085
			c-20.916,0-40.388,10.459-52.195,27.092c-11.307-9.262-25.64-14.536-40.515-14.536c-24.77,0-47.097,14.461-57.579,36.238
			c-5.059-1.267-10.334-1.942-15.745-1.942c-32.247,0-59.514,24.136-63.428,56.14L0.444,351.42
			c-2.088,17.096,3.261,34.296,14.678,47.192C26.53,411.5,42.944,418.89,60.152,418.89h10.636
			c10.313,19.454,30.85,32.094,53.194,32.094h52.847c1.327,1.906,2.759,3.751,4.316,5.509c11.41,12.893,27.829,20.286,45.045,20.286
			h59.621c17.217,0,33.635-7.393,45.045-20.286c1.555-1.759,2.988-3.603,4.316-5.509h52.847c22.349,0,42.891-12.647,53.195-32.094
			h10.635c17.208,0,33.623-7.392,45.031-20.279C508.295,385.716,513.644,368.515,511.556,351.417z M314.207,85.979
			c8.062-10.855,20.952-17.334,34.495-17.334c16.42,0,31.223,9.448,38.41,23.727c-8.526,5.551-15.692,13.152-20.799,22.324
			c-2.687-0.344-5.395-0.527-8.111-0.527c-8.711,0-17.051,1.774-24.673,4.977c-6.624-7.435-15.624-13.849-26.341-18.753
			C308.601,95.209,310.967,90.309,314.207,85.979z M255.999,56.089c15.898,0,30.535,8.976,37.924,22.764
			c-2.781,4.63-4.96,9.594-6.487,14.77c-10.014-2.439-20.684-3.727-31.438-3.727c-10.752,0-21.42,1.288-31.438,3.729
			c-1.529-5.191-3.708-10.156-6.482-14.771C225.465,65.067,240.103,56.089,255.999,56.089z M220.073,116.68
			c10.874-3.869,23.297-5.914,35.924-5.914c12.627,0,25.05,2.045,35.906,5.907c9.73,3.481,17.84,8.263,23.663,13.847
			c-7.648,6.86-13.661,15.55-17.309,25.446c-11.326-9.995-26.172-16.002-42.257-16.002s-30.929,6.008-42.257,16.002
			c-3.648-9.896-9.661-18.587-17.313-25.449C202.252,124.935,210.355,120.157,220.073,116.68z M163.323,68.645
			c13.518,0,26.401,6.479,34.494,17.375c3.218,4.288,5.575,9.174,6.988,14.372c-10.713,4.903-19.714,11.315-26.339,18.751
			c-7.62-3.201-15.959-4.975-24.668-4.975c-2.716,0-5.425,0.184-8.111,0.527c-5.109-9.174-12.275-16.776-20.804-22.327
			C132.071,78.091,146.877,68.645,163.323,68.645z M64.273,383.51c-0.591,4.83-0.589,9.711-0.014,14.511h-4.107
			c-11.237,0-21.954-4.828-29.406-13.243c-7.457-8.424-10.953-19.661-9.59-30.826l26.096-213.205
			c2.636-21.552,20.998-37.805,42.713-37.805c13.997,0,27.041,6.984,35.001,18.084c-18.828,9.462-31.956,27.715-34.598,49.262
			L64.273,383.51z M166.481,409.318c-0.858,7.018-0.444,14.049,1.11,20.797h-43.609c-16.468,0-30.889-9.956-36.745-25.382
			c-2.28-5.969-3.037-12.257-2.25-18.688l26.096-213.221c2.138-17.431,14.462-31.671,31.397-36.276
			c3.684-1.003,7.492-1.512,11.317-1.512c21.705,0,40.06,16.244,42.694,37.776l0.729,6.005c-2.305,5.402-3.897,11.197-4.641,17.279
			L166.481,409.318z M315.228,442.663c-7.45,8.42-18.174,13.248-29.418,13.248h-59.621c-11.243,0-21.965-4.829-29.418-13.248
			s-10.942-19.649-9.577-30.81l26.096-213.221c2.638-21.549,21-37.801,42.709-37.801c21.709,0,40.071,16.251,42.708,37.801
			l26.096,213.221C326.169,423.014,322.68,434.243,315.228,442.663z M424.754,404.754c-5.758,15.169-20.521,25.361-36.736,25.361
			h-43.611c1.554-6.749,1.97-13.779,1.11-20.797l-26.096-213.221c-0.744-6.083-2.336-11.877-4.641-17.278l0.728-5.998
			c2.635-21.54,20.987-37.784,42.694-37.784c3.825,0,7.631,0.509,11.321,1.514c16.932,4.605,29.254,18.843,31.394,36.272
			l26.096,213.224C427.799,392.476,427.042,398.763,424.754,404.754z M481.253,384.778c-7.45,8.416-18.168,13.243-29.406,13.243
			h-4.107c0.576-4.801,0.577-9.682-0.014-14.511L421.63,170.283c-2.645-21.545-15.774-39.797-34.599-49.259
			c7.962-11.099,21.004-18.084,35-18.084c21.715,0,40.08,16.253,42.715,37.806l26.096,213.201
			C492.206,365.118,488.71,376.355,481.253,384.778z"/>
	</g>
</g>
<g>
</g>
<g>
</g>
<g>
</g>
<g>
</g>
<g>
</g>
<g>
</g>
<g>
</g>
<g>
</g>
<g>
</g>
<g>
</g>
<g>
</g>
<g>
</g>
<g>
</g>
<g>
</g>
<g>
</g>
</svg>
