<?xml version="1.0" encoding="iso-8859-1"?>
<!-- Generator: Adobe Illustrator 19.0.0, SVG Export Plug-In . SVG Version: 6.00 Build 0)  -->
<svg version="1.1" id="Layer_1" xmlns="http://www.w3.org/2000/svg" xmlns:xlink="http://www.w3.org/1999/xlink" x="0px" y="0px"
	 viewBox="0 0 512 512" style="enable-background:new 0 0 512 512;" xml:space="preserve">
<g>
	<path style="fill:#CEE8FA;" d="M324.651,360.617H187.348l10.309-206.045c1.555-31.088,27.215-55.497,58.342-55.497l0,0
		c31.127,0,56.787,24.408,58.342,55.497L324.651,360.617z"/>
	<polygon style="fill:#CEE8FA;" points="472.752,412.925 39.248,412.925 13.077,360.617 498.922,360.617 	"/>
</g>
<path style="fill:#2D527C;" d="M510.046,353.743c-2.381-3.856-6.592-6.204-11.125-6.204h-26.679l-40.95-204.624
	c-6.601-32.98-35.804-56.918-69.439-56.918c-7.221,0-13.077,5.856-13.077,13.077c0,7.221,5.856,13.077,13.077,13.077
	c21.214,0,39.63,15.098,43.793,35.897L445.57,347.54H337.087l-9.686-193.622c-1.905-38.086-33.269-67.92-71.404-67.92
	c-21.032,0-39.992,9.087-53.098,23.617c-13.233-14.76-32.324-23.617-52.757-23.617c-33.636,0-62.838,23.939-69.439,56.919
	L56.035,266.174c-1.418,7.083,3.175,13.973,10.258,15.39c7.083,1.425,13.972-3.174,15.389-10.258L106.35,148.05
	c4.164-20.8,22.582-35.898,43.793-35.898c15.801,0,30.339,8.394,38.346,21.769c-0.467,1.342-0.887,2.707-1.275,4.085
	c-0.12,0.425-0.239,0.85-0.352,1.278c-0.127,0.485-0.25,0.972-0.367,1.461c-0.152,0.63-0.292,1.265-0.426,1.9
	c-0.071,0.335-0.149,0.668-0.214,1.004c-0.192,0.981-0.362,1.968-0.514,2.958c-0.043,0.282-0.08,0.569-0.119,0.853
	c-0.112,0.794-0.211,1.59-0.296,2.389c-0.031,0.297-0.064,0.594-0.093,0.892c-0.099,1.055-0.184,2.113-0.237,3.178l-9.688,193.622
	H50.475H13.077c-4.533,0-8.743,2.347-11.125,6.204c-2.383,3.855-2.598,8.67-0.571,12.724l26.171,52.308
	c2.215,4.429,6.743,7.225,11.695,7.225H472.75c4.952,0,9.48-2.797,11.695-7.225l26.171-52.308
	C512.646,362.413,512.43,357.598,510.046,353.743z M256,112.152c24.183,0,44.074,18.92,45.282,43.073l9.621,192.315H201.096
	l9.621-192.315c0.037-0.74,0.093-1.475,0.163-2.205c0.025-0.246,0.06-0.489,0.089-0.734c0.055-0.479,0.109-0.959,0.178-1.432
	c0.051-0.35,0.116-0.697,0.177-1.044c0.061-0.358,0.118-0.721,0.187-1.076c0.089-0.456,0.194-0.909,0.298-1.361
	c0.054-0.235,0.101-0.473,0.158-0.707c0.141-0.577,0.298-1.149,0.463-1.72c0.029-0.099,0.054-0.201,0.082-0.301
	c0.602-2.035,1.347-4.03,2.236-5.979c0.022-0.047,0.035-0.097,0.056-0.144C221.998,122.896,237.777,112.152,256,112.152z
	 M464.671,399.848H47.327l-13.086-26.154h16.233h136.874H324.65c0.009,0.001,0.02,0.001,0.026,0h136.776
	c0.02,0,0.039,0.003,0.058,0.003c0.017,0,0.035-0.003,0.052-0.003h16.195L464.671,399.848z"/>
<g>
</g>
<g>
</g>
<g>
</g>
<g>
</g>
<g>
</g>
<g>
</g>
<g>
</g>
<g>
</g>
<g>
</g>
<g>
</g>
<g>
</g>
<g>
</g>
<g>
</g>
<g>
</g>
<g>
</g>
</svg>
