<?xml version="1.0" encoding="iso-8859-1"?>
<!-- Generator: Adobe Illustrator 19.0.0, SVG Export Plug-In . SVG Version: 6.00 Build 0)  -->
<svg version="1.1" id="Layer_1" xmlns="http://www.w3.org/2000/svg" xmlns:xlink="http://www.w3.org/1999/xlink" x="0px" y="0px"
	 viewBox="0 0 512 512" style="enable-background:new 0 0 512 512;" xml:space="preserve">
<g>
	<g>
		<rect x="183.619" y="247.612" width="15.736" height="112.251"/>
	</g>
</g>
<g>
	<g>
		<path d="M88.148,159.948v80.316h15.736v-80.316c0-13.24,10.491-24.013,24.129-24.013v-15.736
			C105.982,120.199,88.148,138.03,88.148,159.948z"/>
	</g>
</g>
<g>
	<g>
		<rect x="88.153" y="256.004" width="15.736" height="32.521"/>
	</g>
</g>
<g>
	<g>
		<path d="M255.999,120.261c-17.579,0-31.881,14.047-31.881,31.881h15.736c0-9.442,7.242-16.145,16.145-16.145
			c8.904,0,16.145,6.704,16.145,16.145h15.736C287.881,134.307,273.579,120.261,255.999,120.261z"/>
	</g>
</g>
<g>
	<g>
		<path d="M383.986,120.062v15.736c9.442,0,16.226,6.901,16.226,16.342h15.736C415.948,134.307,401.82,120.062,383.986,120.062z"/>
	</g>
</g>
<g>
	<g>
		<rect x="183.619" y="200.403" width="15.736" height="31.472"/>
	</g>
</g>
<g>
	<g>
		<path d="M456.372,384.204v-0.001V159.948c0-39.646-32.351-71.901-72.115-71.901c-12.971,0-25.15,3.437-35.679,9.439
			c-8.302-6.173-18.165-9.439-28.544-9.439c-10.37,0-20.226,3.261-28.525,9.425c-10.495-5.992-22.633-9.425-35.559-9.425
			c-12.906,0-25.026,3.419-35.51,9.388c-8.289-6.139-18.124-9.388-28.475-9.388c-10.39,0-20.264,3.273-28.575,9.459
			c-10.52-6.014-22.695-9.459-35.661-9.459c-39.758,0-72.103,32.255-72.103,71.901v224.256H0v39.749h512v-39.749H456.372z
			 M320.034,103.783c5.299,0,10.394,1.266,14.98,3.693c-6.073,5.668-11.169,12.363-14.995,19.813
			c-3.817-7.451-8.901-14.147-14.959-19.816C309.645,105.049,314.738,103.783,320.034,103.783z M191.965,103.783
			c5.267,0,10.334,1.249,14.9,3.648c-6.076,5.675-11.177,12.382-15.003,19.847c-3.811-7.432-8.886-14.112-14.929-19.771
			C181.533,105.062,186.648,103.783,191.965,103.783z M71.363,159.948c0-30.97,25.287-56.397,56.367-56.397
			c31.025,0,56.267,25.51,56.267,55.933h15.736c0-30.423,25.219-56.165,56.217-56.165c30.983,0,56.191,25.742,56.191,56.165h0.027
			l0.01,34.621l15.736-0.004l-0.01-35.679c0.581-29.951,25.628-54.873,56.353-54.873c31.088,0,56.379,25.427,56.379,56.397v224.256
			H328.385v-64.21h-15.736v64.21H71.363V159.948z M496.264,408.216H15.736v-8.277h480.528V408.216z"/>
	</g>
</g>
<g>
</g>
<g>
</g>
<g>
</g>
<g>
</g>
<g>
</g>
<g>
</g>
<g>
</g>
<g>
</g>
<g>
</g>
<g>
</g>
<g>
</g>
<g>
</g>
<g>
</g>
<g>
</g>
<g>
</g>
</svg>
